<svg width="1347" height="493" viewBox="0 0 1347 493" fill="none" xmlns="http://www.w3.org/2000/svg">
<path fill-rule="evenodd" clip-rule="evenodd" d="M736.485 5.03843L725.345 10.6974L680.485 62.2244C655.812 90.5634 635.007 114.527 634.251 115.476C633.028 117.012 633.715 118.181 640.501 126.116C644.694 131.019 648.119 135.405 648.113 135.864C648.106 136.322 644.34 138.681 639.743 141.105L631.386 145.513L593.535 111.927L555.684 78.3424L544.655 84.1934C535.717 88.9354 533.206 90.7694 531.417 93.8634L529.21 97.6814L528.917 89.0824L528.625 80.4824L467.125 100.157C413.16 117.421 404.277 120.549 394.625 125.682C388.575 128.9 383.489 131.631 383.322 131.751C382.872 132.075 386.231 196.626 386.724 197.125C386.957 197.36 391.637 196.493 397.125 195.197C402.613 193.901 407.273 193.034 407.482 193.269C407.69 193.505 408.084 196.622 408.357 200.197L408.854 206.697L394.739 206.746C383.653 206.784 378.728 207.268 371.785 208.998C360.245 211.875 349.399 216.268 340.223 221.78C336.152 224.226 332.651 226.057 332.443 225.848C332.235 225.64 332.585 222.146 333.221 218.083C334.804 207.964 333.793 189.66 331.127 180.197C324.374 156.224 308.077 135.53 283.907 120.236C266.712 109.354 254.842 105.078 232.594 101.75C188.429 95.1424 139.475 102.706 89.774 123.818C67.982 133.074 56.815 139.026 32.625 154.28C21.857 161.07 16.475 165.273 9.313 172.484L0 181.86L29.21 231.278C45.275 258.459 58.947 281.275 59.592 281.982C60.536 283.015 62.878 282.364 71.567 278.653C77.507 276.115 82.692 274.412 83.089 274.868C83.486 275.324 105.301 324.522 131.568 384.197C157.835 443.872 179.447 492.826 179.596 492.984C179.744 493.142 200.287 486.693 225.245 478.654L270.625 464.036L281.51 456.867C287.497 452.923 292.82 449.424 293.339 449.089C294.113 448.591 282.462 401.165 276.56 380.787C274.886 375.009 274.927 375.034 279.996 382.876C285.263 391.026 296.287 402.554 303.492 407.446C311.926 413.174 322.675 417.889 332.824 420.311C340.323 422.102 343.696 422.339 355.625 421.915C372.102 421.328 381.025 419.234 394.835 412.712C403.595 408.574 420.618 397.718 423.174 394.638C423.832 393.845 424.705 393.197 425.115 393.197C425.525 393.197 426.447 400.441 427.164 409.294C427.926 418.711 428.915 425.563 429.547 425.805C430.14 426.033 449.777 423.374 473.184 419.896L515.741 413.573L527.183 407.465L538.625 401.356L538.237 374.277C538.024 359.383 538.167 347.197 538.555 347.197C538.943 347.197 574.869 364.82 618.39 386.36L697.52 425.522L708.809 419.61L720.099 413.697L720.112 376.175L720.125 338.653L726.839 337.379C736.988 335.454 747.412 331.608 759.875 325.191C766.063 322.005 771.12 319.69 771.113 320.047C771.107 320.405 769.762 328.572 768.125 338.197C766.488 347.822 765.143 356.839 765.137 358.236L765.125 360.774L813.875 368.553L862.625 376.332L871.625 371.398C876.575 368.684 880.932 366.636 881.306 366.846C881.681 367.057 884.529 371.969 887.636 377.761L893.285 388.292L901.81 383.683C906.498 381.148 910.53 379.269 910.77 379.508C911.009 379.747 911.929 385.963 912.814 393.32C913.7 400.677 914.695 407.003 915.025 407.376C915.603 408.032 1022.26 427.197 1025.32 427.197C1026.48 427.197 1046.07 417.157 1048.02 415.566C1048.4 415.253 1045.51 394.841 1044.47 390.51C1044.01 388.616 1044.46 388.239 1047.78 387.702C1057.18 386.186 1066.64 383.871 1071.21 381.971C1073.94 380.838 1076.42 380.157 1076.72 380.457C1077.02 380.758 1076.28 389.394 1075.08 399.649C1073.87 409.905 1073.06 418.424 1073.26 418.582C1073.46 418.74 1088.92 421.016 1107.62 423.64C1126.33 426.264 1142.86 428.644 1144.38 428.929L1147.12 429.447V444.279V459.111L1169.38 466.236C1181.61 470.154 1198.52 475.574 1206.94 478.279C1215.37 480.984 1222.96 483.197 1223.81 483.197C1224.66 483.197 1230.25 480.61 1236.24 477.447L1247.12 471.697L1297.19 320.819C1324.73 237.836 1346.9 169.624 1346.45 169.238C1345.56 168.477 1245.47 144.157 1243.33 144.182C1242.61 144.19 1238.75 145.997 1234.74 148.197C1230.73 150.397 1227.21 152.197 1226.9 152.197C1226.6 152.197 1225.8 149.272 1225.12 145.697C1224.45 142.122 1223.76 139.197 1223.59 139.197C1223.41 139.197 1195.73 133.135 1162.07 125.726L1100.87 112.254L1090.75 117.826C1085.18 120.89 1080.18 123.816 1079.64 124.328C1079.03 124.911 1078.79 136.629 1078.99 155.652L1079.32 186.045L1074.97 186.58C1072.58 186.874 1067.81 187.381 1064.37 187.706C1051.11 188.96 1033.36 195.349 1020.86 203.367C1018.21 205.065 1015.9 206.284 1015.71 206.076C1015.52 205.867 1011.48 180.947 1006.72 150.697C1001.97 120.447 997.828 94.4594 997.522 92.9474L996.966 90.1974H956.036H915.106L906.365 94.8694C901.558 97.4394 896.431 100.364 894.971 101.369C892.536 103.045 889.593 103.202 859.471 103.255L826.625 103.313L815.655 109.505L804.684 115.697L802.461 129.057C801.238 136.405 800.065 142.59 799.854 142.801C799.643 143.012 797.705 141.675 795.548 139.83C780.215 126.717 759.462 118.06 736.264 115.101L726.904 113.907L734.391 109.802C738.508 107.544 754.523 98.9474 769.979 90.6974C785.434 82.4474 798.09 75.3214 798.103 74.8624C798.123 74.1164 749.867 1.65443 748.275 0.0384291C747.917 -0.324571 742.612 1.92543 736.485 5.03843ZM758.011 51.9904C764.176 60.4024 769.43 67.8294 769.686 68.4954C769.979 69.2594 756.128 76.7044 732.089 88.7014L694.028 107.697L692.093 105.197C688.565 100.639 688.693 99.4234 693.292 93.8484C738.776 38.7084 743.6 33.2384 745.213 34.9814C746.086 35.9254 751.845 43.5794 758.011 51.9904ZM978.607 114.447C979.53 118.434 995.125 221.09 995.125 223.173C995.125 224.28 992.408 228.851 989.087 233.33C971.842 256.588 964.695 285.949 970.009 311.699C975.213 336.911 991.691 358.798 1013.37 369.293C1018.56 371.806 1018.7 372.047 1019.69 380.497C1020.36 386.217 1020.34 386.289 1018 385.779C1016.69 385.495 1003.02 383.382 987.625 381.082C972.225 378.783 959.522 376.827 959.395 376.736C959.269 376.645 955.527 352.533 951.081 323.153C946.635 293.773 942.9 269.639 942.783 269.521C942.665 269.404 938.106 280.87 932.652 295.002C918.725 331.091 920.137 327.963 918.82 325.648C918.209 324.575 910.398 307.971 901.462 288.749C892.525 269.528 884.992 254.453 884.72 255.249C884.449 256.046 881.294 275.32 877.709 298.081C874.124 320.842 871.058 339.597 870.895 339.76C870.733 339.923 868.58 339.658 866.112 339.173C860.758 338.12 814.746 330.197 813.982 330.197C813.69 330.197 815.233 319.522 817.412 306.475L821.374 282.754L833.499 269.897C840.168 262.826 845.744 256.72 845.888 256.328C846.033 255.937 842.174 252.151 837.312 247.915L828.471 240.213L838.113 182.955L847.756 125.697L876.94 125.432C892.992 125.286 906.125 125.382 906.125 125.644C906.125 126.844 920.219 202.624 920.493 202.898C920.663 203.069 921.376 199.943 922.076 195.953C927.731 163.725 936.207 116.279 936.636 114.447C937.161 112.204 937.228 112.197 957.625 112.197C978.024 112.197 978.088 112.204 978.607 114.447ZM506.053 151.197C507.228 171.272 508.287 188.544 508.407 189.58C508.542 190.745 518.878 177.033 535.544 153.58C550.349 132.744 562.74 115.366 563.078 114.962C563.609 114.33 616.106 163.409 616.925 165.302C617.204 165.947 599.85 184.516 558.96 227.328L542.12 244.958L573.873 257.546C591.336 264.47 607.113 270.651 608.931 271.283C611.385 272.136 613.427 274.27 616.855 279.564C623.332 289.57 638.841 304.567 648.939 310.589C659.657 316.982 673.037 321.979 686.375 324.572L697.125 326.661V351.93V377.199L607.125 332.197L517.125 287.195V334.177V381.159L514.875 381.665C512.658 382.165 479.463 386.763 473.625 387.38L470.625 387.697L469.041 368.697L467.457 349.697L471.737 340.648C489.707 302.656 485.585 261.734 461.066 234.697L457.439 230.697L454.262 192.697C452.515 171.797 451.095 153.941 451.105 153.016C451.123 151.513 450.022 151.631 440.733 154.123L430.34 156.911L429.744 153.304C429.415 151.32 429.142 146.762 429.136 143.174L429.125 136.652L466.375 125.579C486.862 119.489 503.691 114.549 503.771 114.601C503.852 114.654 504.879 131.122 506.053 151.197ZM229.625 125.731C250.346 128.843 266.595 135.867 282.103 148.415C295.076 158.912 305.57 175.399 308.743 190.267C312.791 209.235 307.365 234.05 294.478 255.51C282.201 275.954 260.574 298.157 240.375 311.053C237.488 312.897 235.125 315.037 235.125 315.809C235.125 316.581 241.885 343.149 250.147 374.849C258.41 406.549 265.047 432.578 264.897 432.69C263.159 433.994 215.73 448.17 215.192 447.547C214.789 447.079 191.829 396.072 164.168 334.197C136.508 272.322 113.755 221.557 113.607 221.386C113.458 221.215 107.831 223.835 101.103 227.208C94.374 230.581 88.517 232.971 88.087 232.519C86.592 230.946 52.125 172.23 52.125 171.255C52.125 170.083 65.88 161.847 78.031 155.744C110.482 139.446 149.635 127.384 180.125 124.29C192.75 123.009 216.013 123.687 229.625 125.731ZM742.917 139.781C751.997 141.647 762.556 145.86 771.047 151.004C777.527 154.93 789.485 165.133 791.065 168.084C791.852 169.556 785.817 176.465 755.097 209.254C734.596 231.136 718.564 249.036 719.04 249.512C720.131 250.603 733.717 248.567 741.603 246.13C750.086 243.509 758.533 238.163 766.277 230.515C772.339 224.528 773.098 224.068 774.845 225.321C775.9 226.078 784.764 233.897 794.544 242.697L812.325 258.697L804.975 265.533C782.082 286.824 746.719 301.439 714.625 302.872C689.216 304.007 668.969 297.895 651.104 283.697C624.905 262.876 616.847 220.816 632.902 188.697C644.843 164.811 670.179 146.579 700.125 140.323C712.254 137.79 732.01 137.54 742.917 139.781ZM1163.12 148.844C1184.3 153.05 1201.95 156.772 1202.35 157.116C1202.74 157.46 1209.02 185.978 1216.3 220.489C1223.57 255 1229.83 282.665 1230.2 281.967C1230.57 281.268 1236.83 255.947 1244.11 225.697C1251.4 195.447 1257.45 170.592 1257.56 170.463C1257.8 170.185 1317.48 183.261 1317.94 183.691C1318.23 183.969 1233.2 442.321 1232.59 443.027C1232.3 443.352 1190.92 431.287 1190.31 430.699C1190.13 430.532 1189.16 396.115 1188.15 354.217C1187.13 312.319 1186.14 277.878 1185.94 277.68C1185.74 277.482 1181.59 299.905 1176.72 327.509C1171.84 355.112 1167.18 381.409 1166.36 385.947C1164.94 393.822 1164.75 394.195 1162.25 394.153C1158.78 394.095 1119.33 387.743 1118.78 387.154C1118.55 386.903 1119.1 379.047 1120.02 369.697L1121.67 352.697L1127.51 347.197C1140.32 335.132 1153.51 313.127 1158.08 296.197C1166.16 266.215 1159.45 234.707 1140.66 214.406L1135.25 208.565L1137.16 189.131C1138.21 178.442 1139.08 169.198 1139.1 168.589C1139.11 167.98 1135.3 166.453 1130.62 165.197L1122.12 162.913L1122.14 155.805C1122.15 148.059 1123.03 141.197 1124.01 141.197C1124.35 141.196 1141.95 144.638 1163.12 148.844ZM696.791 174.206C677.495 181.058 665.778 198.591 667.418 218.157C668.382 229.654 674.515 241.599 682.631 247.786L685.637 250.077L712.631 219.559C727.478 202.774 740.062 188.417 740.597 187.655C742.099 185.514 736.753 180.619 728.404 176.491C722.028 173.339 720.096 172.875 711.904 172.528C704.359 172.208 701.535 172.522 696.791 174.206ZM717.91 189.142C718.782 189.599 714.017 195.744 703.086 208.256C694.226 218.399 686.622 226.826 686.188 226.985C684.564 227.577 682.628 220.472 682.702 214.197C682.861 200.735 692.81 190.04 707.125 187.942C710.063 187.512 716.076 188.181 717.91 189.142ZM219.273 194.225C211.777 195.315 199.125 200.079 199.125 201.811C199.125 206.032 224.276 286.422 225.748 286.908C227.521 287.494 246.035 273.187 252.318 266.377C269.505 247.748 271.527 219.894 256.772 205.056C251.632 199.888 242.671 195.612 234.125 194.249C226.979 193.109 226.945 193.109 219.273 194.225ZM1091.92 208.729C1115.08 213.333 1133.72 230.686 1139.68 253.197C1141.94 261.741 1141.99 278.398 1139.78 287.493C1133.38 313.852 1112.5 338.993 1087.62 350.272C1075.06 355.966 1066.91 357.684 1052.62 357.641C1041.06 357.607 1038.75 357.297 1031.64 354.826C1020.66 351.014 1013.54 346.44 1005.81 338.243C998.346 330.334 993.115 320.532 990.558 309.669C988.32 300.159 989.063 282.444 992.11 272.697C996.725 257.937 1006.51 242.61 1018.29 231.703C1039.28 212.264 1066.68 203.713 1091.92 208.729ZM235.344 213.241C240.111 214.565 245.022 218.706 246.761 222.868C248.554 227.159 248.493 235.131 246.618 241.543C245.273 246.146 237.078 258.197 235.294 258.197C234.685 258.197 224.063 224.306 222.708 218.04C222.392 216.578 221.858 214.666 221.522 213.79C221.01 212.454 221.777 212.198 226.268 212.203C229.214 212.206 233.299 212.673 235.344 213.241ZM601.737 219.224C601.383 221.439 601.564 228.25 602.14 234.359C602.716 240.469 603.061 245.582 602.906 245.723C602.752 245.863 597.306 243.929 590.804 241.425L578.984 236.871L589.787 226.034C595.729 220.074 600.994 215.197 601.486 215.197C601.978 215.197 602.091 217.009 601.737 219.224ZM1058.12 224.628C1046.92 227.746 1038.65 234.357 1033.92 243.974C1030.93 250.041 1030.62 251.51 1030.62 259.682C1030.62 267.635 1030.97 269.404 1033.57 274.697C1045.33 298.673 1078.19 304.247 1098.08 285.641C1100.84 283.059 1104.34 278.415 1105.86 275.322C1108.32 270.318 1108.62 268.593 1108.62 259.697C1108.62 251.262 1108.28 249.071 1106.42 245.697L1104.21 241.697L1104.17 245.882C1104.11 251.45 1102.66 255.006 1098.81 259.035C1088.97 269.341 1072.57 269.69 1062.68 259.802C1057.6 254.72 1055.72 249.761 1056.36 243.098C1057.16 234.782 1063.7 227.678 1073.31 224.676L1077.62 223.331L1070.12 223.353C1066 223.366 1060.6 223.939 1058.12 224.628ZM413.625 226.778C428.604 230.347 443.834 240.972 452.052 253.586C477.217 292.21 456.174 351.015 408.625 374.943C392.032 383.293 370.913 386.353 354.728 382.752C323.041 375.702 301.129 345.987 303.465 313.231C307.396 258.091 362.745 214.654 413.625 226.778ZM378.625 244.596C368.131 247.915 358.87 255.917 354.655 265.308C352.213 270.752 351.972 272.292 352.282 280.531C352.668 290.827 354.883 296.71 360.867 303.333C369.088 312.433 379.885 316.621 393.58 316.022C401.487 315.676 403.772 315.153 409.332 312.416C417.191 308.547 424.235 301.347 427.923 293.415C431.608 285.489 431.714 273.123 428.161 265.697L425.768 260.697L425.152 265.697C424.362 272.11 422.175 276.142 417.159 280.436C407.547 288.663 392.202 288.039 383.219 279.055C378.368 274.205 376.754 269.678 377.344 262.575C377.995 254.716 383.916 247.812 392.683 244.689L396.625 243.285L389.625 243.308C385.775 243.32 380.825 243.9 378.625 244.596ZM1264.88 445.903C1266.91 446.294 1267.12 446.912 1267.12 452.267C1267.12 459.855 1268.93 460.037 1269.32 452.488C1269.59 447.366 1269.88 446.708 1272.12 446.088C1273.75 445.638 1272.53 445.409 1268.62 445.433C1265.33 445.453 1263.64 445.664 1264.88 445.903ZM1275.12 451.697C1275.12 455.364 1275.56 458.197 1276.12 458.197C1276.68 458.197 1277.15 455.835 1277.19 452.947L1277.26 447.697L1279.32 452.947C1280.46 455.835 1281.75 458.197 1282.18 458.197C1282.62 458.197 1283.51 456.51 1284.18 454.447C1286.1 448.491 1286.59 448.371 1287.22 453.697C1287.8 458.583 1287.81 458.542 1287.97 451.864C1288.16 443.709 1286.63 443.278 1284.06 450.758L1282.36 455.697L1281.25 452.903C1280.64 451.366 1279.86 449.004 1279.53 447.653C1279.14 446.128 1278.19 445.197 1277.02 445.197C1275.35 445.197 1275.12 445.988 1275.12 451.697Z" fill="black"/>
</svg>
